HIERARCHY
ROOT hip
{
	OFFSET	0.0000	0.0000	0.0000
	CHANNELS	6	Xposition	Yposition	Zposition	Zrotation	Xrotation	Yrotation
	JOINT abdomen
	{
		OFFSET	0	3.402643	0
		CHANNELS	3	Zrotation	Xrotation	Yrotation
		JOINT chest
		{
			OFFSET	0	8.438565	-0.680529
			CHANNELS	3	Zrotation	Xrotation	Yrotation
			JOINT neck
			{
				OFFSET	0	10.207942	-0.272212
				CHANNELS	3	Zrotation	Xrotation	Yrotation
				JOINT head
				{
					OFFSET	0	3.130431	0
					CHANNELS	3	Zrotation	Xrotation	Yrotation
					End Site 
					{
						OFFSET	0	3.130435	0
					}
				}
			}
			JOINT lCollar
			{
				OFFSET	3.4707	6.669187	-0.816635
				CHANNELS	3	Zrotation	Xrotation	Yrotation
				JOINT lShldr
				{
					OFFSET	3.198488	0	0
					CHANNELS	3	Zrotation	Xrotation	Yrotation
					JOINT lForeArm
					{
						OFFSET	10.139888	0	0
						CHANNELS	3	Zrotation	Xrotation	Yrotation
						JOINT lHand
						{
							OFFSET	8.370511	0	0
							CHANNELS	3	Zrotation	Xrotation	Yrotation
							End Site 
							{
								OFFSET	4.083176	0	0
							}
						}
					}
				}
			}
			JOINT rCollar
			{
				OFFSET	-3.4707	6.669187	-0.816635
				CHANNELS	3	Zrotation	Xrotation	Yrotation
				JOINT rShldr
				{
					OFFSET	-3.198488	0	0
					CHANNELS	3	Zrotation	Xrotation	Yrotation
					JOINT rForeArm
					{
						OFFSET	-10.139888	0	0
						CHANNELS	3	Zrotation	Xrotation	Yrotation
						JOINT rHand
						{
							OFFSET	-8.370511	0	0
							CHANNELS	3	Zrotation	Xrotation	Yrotation
							End Site 
							{
								OFFSET	-4.083176	0	0
							}
						}
					}
				}
			}
		}
	}
	JOINT lThigh
	{
		OFFSET	5.308129	-1.633274	1.361059
		CHANNELS	3	Zrotation	Xrotation	Yrotation
		JOINT lShin
		{
			OFFSET	-2.041588	-20.007561	0
			CHANNELS	3	Zrotation	Xrotation	Yrotation
			JOINT lFoot
			{
				OFFSET	0	-19.190928	-1.224953
				CHANNELS	3	Zrotation	Xrotation	Yrotation
				End Site 
				{
					OFFSET	0	-2.449906	4.6276
				}
			}
		}
	}
	JOINT rThigh
	{
		OFFSET	-5.308129	-1.633274	1.361059
		CHANNELS	3	Zrotation	Xrotation	Yrotation
		JOINT rShin
		{
			OFFSET	2.041588	-20.007561	0
			CHANNELS	3	Zrotation	Xrotation	Yrotation
			JOINT rFoot
			{
				OFFSET	0	-19.190928	-1.224953
				CHANNELS	3	Zrotation	Xrotation	Yrotation
				End Site 
				{
					OFFSET	0	-2.449906	4.6276
				}
			}
		}
	}
}
MOTION
Frames:	14
Frame Time:	0.016667
-0.0301	47.7815	1.6174	1.8961	-11.8846	-7.8850	-5.6786	35.2979	8.0984	2.5926	-17.3679	7.2649	-4.3893	-9.4466	-3.8069	0.9391	4.9214	-3.6551	-7.6360	-0.0096	-4.2995	-69.7384	-1.5054	19.1702	6.1185	49.8754	-35.4788	-12.0925	-3.5302	16.4186	-3.0101	-0.0095	13.5342	67.4945	3.6753	-4.4980	-3.3649	33.0205	56.1142	-11.4313	0.3433	-1.7129	-2.3531	-19.6003	2.8925	-1.1899	34.8558	-2.1248	-11.2421	10.3154	-4.5984	-11.3242	9.6736	-0.0421	-3.0630	68.4462	6.8713	8.3964	24.6064	7.1518	
-0.0834	48.0129	3.2050	2.1066	-12.2633	-7.8095	-5.9515	35.5476	7.8485	2.6671	-17.4808	6.9703	-4.1992	-9.1753	-3.5005	0.8418	5.0980	-3.3465	-7.6555	-0.0096	-4.1335	-70.6913	-1.7891	16.9174	6.1233	49.8934	-35.2889	-11.7055	-3.5782	17.2534	-2.7952	-0.0095	13.1924	68.4344	3.7374	-6.6856	-3.4087	33.3925	55.2425	-10.5442	0.3750	-2.0346	-3.1164	-17.7490	2.1387	-1.1349	36.0192	-2.1785	-11.5635	8.1022	-4.0237	-11.3866	8.0481	0.4091	-3.8330	70.6175	7.6557	8.5322	22.8554	7.6183	
-0.1821	48.3878	4.7069	2.0280	-12.1560	-7.5755	-5.8160	35.4370	7.1518	3.3253	-17.6344	6.5348	-4.0351	-8.4721	-2.8866	0.3329	4.8283	-2.6843	-7.6849	-0.0096	-3.8991	-71.8322	-1.6466	15.7392	5.9715	49.1513	-35.0933	-10.9505	-3.3230	17.1938	-2.9221	-0.0095	13.1045	69.1579	3.8956	-9.4324	-3.4396	33.5746	54.0988	-9.6019	0.2041	-1.2477	-3.4974	-15.5867	1.0554	-1.1479	35.5990	-2.1613	-11.7366	6.6699	-3.6147	-11.0327	4.4449	-0.0898	-4.8599	72.8987	8.7330	8.3895	22.4825	8.2489	
-0.2808	48.7627	6.2087	1.9494	-12.0589	-7.3311	-5.6799	35.3240	6.4558	3.9857	-17.7899	6.1038	-3.8717	-7.7747	-2.2869	-0.1860	4.5671	-2.0262	-7.7240	-0.0096	-3.6745	-72.9648	-1.4998	14.5892	5.8147	48.4106	-34.8944	-10.1975	-3.0702	17.1226	-3.0588	-0.0095	13.0166	69.8463	4.0365	-12.1700	-3.4749	33.7537	52.9650	-8.6720	0.0508	-0.4586	-3.8338	-13.4116	0.0320	-1.1471	35.1879	-2.1782	-11.9016	5.2579	-3.2171	-10.7092	0.8441	-0.5735	-6.3070	75.1595	10.2134	8.1971	22.1009	8.9407	
-0.4479	49.1941	7.6582	1.5739	-11.7393	-6.7427	-5.1195	35.1262	5.4967	4.4757	-17.9758	5.4583	-3.1690	-7.2642	-1.8296	-0.9396	4.0867	-1.4470	-7.5482	-0.0096	-3.5865	-73.5191	-1.0305	14.6830	5.7123	47.9270	-35.5000	-10.6854	-3.2245	17.1177	-2.8147	-0.0095	12.7432	70.1885	4.1958	-14.9566	-3.5450	34.3886	51.9330	-7.4041	0.1579	-1.3572	-3.5817	-11.1164	-0.6974	-1.1913	34.1133	-2.1120	-11.9523	4.3913	-3.3906	-9.9445	-2.8352	-1.3347	-6.4467	75.4999	10.3526	8.2135	21.9056	8.9685	
-0.6150	49.6256	9.1077	1.1981	-11.4279	-6.1506	-4.5722	34.9158	4.5384	4.9570	-18.1732	4.8227	-2.4679	-6.7540	-1.3755	-1.6828	3.6016	-0.8810	-7.3725	-0.0096	-3.4986	-74.1225	-0.5890	14.7927	5.6181	47.4361	-36.1181	-11.1666	-3.3852	17.1065	-2.5802	-0.0095	12.4698	70.5051	4.3530	-17.7410	-3.6227	35.0208	50.9140	-6.1374	0.2351	-2.2673	-3.2781	-8.8239	-1.4019	-1.2349	33.0483	-2.0473	-12.0063	3.5038	-3.5680	-9.2327	-6.5310	-2.0703	-6.7319	75.8633	10.6697	8.2491	21.7076	8.9684	
-0.8033	49.9624	10.5664	0.8724	-11.3814	-5.4241	-4.1247	34.9897	3.5120	5.6789	-18.4529	4.1670	-1.9543	-6.1064	-0.8824	-2.2000	2.8952	-0.3189	-7.2260	-0.0096	-3.5181	-74.5472	-0.0804	15.3561	5.4496	46.6946	-37.1148	-12.0355	-3.5302	16.4928	-2.5509	-0.0095	12.5382	70.4409	4.5538	-20.8888	-3.8068	36.3770	50.1771	-5.2080	0.1747	-2.0176	-3.0277	-6.6770	-2.3253	-1.2536	32.7258	-2.0224	-12.0542	2.7100	-3.4837	-8.6346	-9.3413	-2.7635	-5.7316	74.4616	9.6227	8.6377	20.6946	8.3728	
-0.9917	50.2992	12.0250	0.5459	-11.3335	-4.6878	-3.6750	35.0520	2.4836	6.3931	-18.7426	3.5059	-1.4519	-5.4606	-0.3923	-2.6973	2.1982	0.2401	-7.0892	-0.0096	-3.5473	-75.0205	0.3983	15.9286	5.3265	45.9513	-38.1536	-12.9068	-3.6738	15.8695	-2.5217	-0.0095	12.6066	70.3553	4.7672	-24.0486	-4.0123	37.7296	49.4670	-4.2889	0.1220	-1.7542	-2.7499	-4.5309	-3.2473	-1.2722	32.4029	-2.0073	-12.0906	1.8970	-3.4002	-8.0724	-12.1567	-3.4436	-4.9000	73.0645	8.7735	9.0666	19.6701	7.7121	
-1.2107	50.4542	13.4101	0.4272	-11.1982	-3.5499	-3.3964	35.2441	1.3845	6.9245	-19.0700	2.6950	-0.3922	-5.2146	-0.0552	-3.9283	2.1292	0.7821	-6.8353	-0.0096	-3.7816	-75.0083	0.9319	16.5941	5.0882	44.7690	-39.5528	-12.7148	-3.5403	15.5226	-2.1798	-0.0095	12.3333	69.8771	5.2231	-27.2689	-4.0520	38.0303	48.9121	-4.2026	0.1685	-2.4232	-2.5095	-2.9424	-3.7453	-1.2533	32.7063	-2.0219	-12.1693	0.8669	-3.4984	-7.8246	-14.4727	-4.3495	-3.5803	70.2138	7.4046	9.4279	18.4824	7.2379	
-1.4296	50.6092	14.7951	0.3082	-11.0676	-2.4116	-3.1031	35.4178	0.2843	7.4463	-19.4044	1.8771	0.6764	-4.9580	0.2832	-5.1488	2.0479	1.3215	-6.5814	-0.0096	-4.0159	-75.0616	1.4584	17.2419	4.9077	43.5924	-40.9932	-12.5317	-3.3997	15.1766	-1.8477	-0.0095	12.0502	69.3628	5.7213	-30.5034	-4.0921	38.3296	48.3688	-4.1267	0.2142	-3.1022	-2.2628	-1.3646	-4.2499	-1.2459	32.9991	-2.0424	-12.2465	-0.1668	-3.6175	-7.6003	-16.8001	-5.2812	-2.6629	67.3530	6.4324	9.7501	17.2934	6.7999	
-1.6146	50.6688	16.1649	0.4370	-10.6256	-1.3452	-3.1188	35.2637	-0.8575	8.7679	-19.3768	1.1741	0.8143	-5.5560	0.7724	-6.0577	2.4566	1.9301	-6.8841	-0.0096	-3.6644	-74.9671	1.9510	17.2179	4.7016	42.5163	-42.6284	-12.0855	-3.2618	15.0849	-2.4630	-0.0095	12.0109	68.8518	6.1564	-33.3775	-3.8526	36.5566	47.7533	-4.2059	0.2355	-3.3337	-2.0333	-0.2930	-4.1269	-1.2420	33.4774	-2.0673	-12.2604	-0.8183	-4.1034	-7.8814	-18.5440	-6.0828	-1.5014	62.5046	5.2006	10.0574	16.5119	6.1141	
-1.7996	50.7284	17.5347	0.5457	-10.1886	-0.2745	-3.1332	35.1109	-2.0093	10.0858	-19.3704	0.4656	0.9526	-6.1518	1.2644	-6.9568	2.8675	2.5434	-7.1967	-0.0096	-3.3228	-74.9474	2.4368	17.1794	4.5524	41.4358	-44.3007	-11.6379	-3.1159	15.0029	-3.0684	-0.0095	11.9814	68.3097	6.6275	-36.2649	-3.6083	34.7845	47.1445	-4.2753	0.2561	-3.5556	-1.8100	0.7966	-4.0000	-1.2367	33.9264	-2.0918	-12.3308	-1.4822	-4.5856	-8.1850	-20.2741	-6.8670	-0.6779	57.6489	4.2877	10.3687	15.7393	5.4554	
-1.9421	50.6045	18.9690	1.0017	-10.0423	0.4678	-3.4540	35.1840	-2.7308	10.7057	-19.4746	-0.1118	1.0216	-6.3796	1.5591	-6.8290	2.9474	2.8214	-7.0697	-0.0096	-3.4790	-74.7403	2.8000	16.9207	4.4121	40.6945	-46.4420	-11.2767	-2.9764	14.8011	-3.2540	-0.0095	12.2060	67.7081	6.5001	-38.4140	-3.6899	35.3541	47.0882	-4.7759	0.0746	-1.1243	-2.1245	2.2370	-4.5673	-1.2031	34.4062	-2.1071	-12.4529	-2.9600	-4.6075	-8.7726	-20.8928	-7.0051	0.0589	51.1778	3.4469	10.6121	15.2336	4.7435	
-2.0845	50.4806	20.4033	1.4471	-9.8850	1.2157	-3.7741	35.2651	-3.4623	11.3236	-19.5813	-0.6806	1.1006	-6.6062	1.8653	-6.7108	3.0291	3.0890	-6.9427	-0.0096	-3.6449	-74.5749	3.1614	16.6464	4.3115	39.9644	-48.6031	-10.9274	-2.8410	14.6040	-3.4396	-0.0095	12.4305	67.1249	6.3615	-40.5834	-3.7719	35.9310	47.0263	-5.2751	-0.1303	1.2998	-2.4274	3.6985	-5.1084	-1.1570	34.8958	-2.1369	-12.5415	-4.4239	-4.6236	-9.3561	-21.5095	-7.1587	0.5633	44.6907	2.8396	10.8385	14.7172	4.0432	
